<?xml version="1.0" encoding="UTF-8" standalone="no"?>
<!-- Created with Inkscape (http://www.inkscape.org/) -->
<svg
   xmlns:svg="http://www.w3.org/2000/svg"
   xmlns="http://www.w3.org/2000/svg"
   version="1.0"
   width="500"
   height="400"
   id="svg4023">
  <defs
     id="defs4026" />
  <path
     d="M 52.589642,276.77988 L 116.34039,2.3051862 L 492.10719,2.3051862 L 319.22969,213.25303 L 326.18766,230.26298 L 445.51278,124.69008 L 358.81325,397.53935 L 9.0092437,397.53935 L 173.76962,202.50372 L 156.69675,172.02636 L 52.589642,276.77988 z "
     style="opacity:1;color:#000000;fill:#000000;fill-opacity:1;fill-rule:nonzero;stroke:none;stroke-width:2.31200051;stroke-linecap:butt;stroke-linejoin:miter;marker:none;marker-start:none;marker-mid:none;marker-end:none;stroke-miterlimit:4;stroke-dasharray:none;stroke-dashoffset:0;stroke-opacity:1;visibility:visible;display:inline;overflow:visible;enable-background:accumulate"
     id="path5006" />
  <path
     d="M 92.222441,212.67764 L 134.73445,25.785488 L 450.76665,25.785488 L 301.21875,208.26627 L 314.0834,239.71624 L 276.83401,238.02088 L 228.58152,296.89943 L 282.32305,296.89943 L 412.26525,182.19738 L 348.09622,380.31912 L 54.523168,380.31912 L 197.4405,208.81832 L 177.07233,170.11358 L 230.36866,169.3045 L 283.12517,105.99672 L 194.09074,105.99672 L 92.222441,212.67764 z "
     style="opacity:1;color:#000000;fill:#c80b21;fill-opacity:1;fill-rule:nonzero;stroke:none;stroke-width:1;stroke-linecap:butt;stroke-linejoin:miter;marker:none;marker-start:none;marker-mid:none;marker-end:none;stroke-miterlimit:4;stroke-dasharray:none;stroke-dashoffset:0;stroke-opacity:1;visibility:visible;display:inline;overflow:visible;enable-background:accumulate"
     id="path4032" />
  <path
     d="M 54.914422,271.4959 L 72.862035,253.54836 L 127.48498,14.768062 L 471.60954,14.768062 L 489.55705,3.8434729 L 117.34064,3.8434729 L 54.914422,271.4959 z "
     style="opacity:1;color:#000000;fill:#848685;fill-opacity:1;fill-rule:nonzero;stroke:none;stroke-width:1;stroke-linecap:butt;stroke-linejoin:miter;marker:none;marker-start:none;marker-mid:none;marker-end:none;stroke-miterlimit:4;stroke-dasharray:none;stroke-dashoffset:0;stroke-opacity:1;visibility:visible;display:inline;overflow:visible;enable-background:accumulate"
     id="path5011" />
  <path
     d="M 12.501631,394.42899 L 32.924162,385.94138 L 185.80585,205.2203 L 173.19192,205.2203 L 12.501631,394.42899 z "
     style="opacity:1;color:#000000;fill:#848685;fill-opacity:1;fill-rule:nonzero;stroke:none;stroke-width:1;stroke-linecap:butt;stroke-linejoin:miter;marker:none;marker-start:none;marker-mid:none;marker-end:none;stroke-miterlimit:4;stroke-dasharray:none;stroke-dashoffset:0;stroke-opacity:1;visibility:visible;display:inline;overflow:visible;enable-background:accumulate"
     id="path5013" />
  <path
     d="M 325.52357,232.36322 L 321.13609,244.97713 L 430.81519,152.1618 L 443.42912,127.48242 L 325.52357,232.36322 z "
     style="opacity:1;color:#000000;fill:#848685;fill-opacity:1;fill-rule:nonzero;stroke:none;stroke-width:1;stroke-linecap:butt;stroke-linejoin:miter;marker:none;marker-start:none;marker-mid:none;marker-end:none;stroke-miterlimit:4;stroke-dasharray:none;stroke-dashoffset:0;stroke-opacity:1;visibility:visible;display:inline;overflow:visible;enable-background:accumulate"
     id="path5015" />
  <circle
     cx="119.816"
     cy="120.001"
     r="112.5"
     transform="matrix(0.4612467,0,0,0.4612467,192.45352,149.60504)"
     style="fill:#e7940a;stroke:none;stroke-width:14"
     id="circle3720" />
  <g
     transform="matrix(0.4612467,0,0,0.4612467,192.45352,149.60504)"
     id="g3736">
				<path
   d="M 229.415,130.594 C 218.915,111.095 203.917,93.096 179.917,100.596 C 158.919,108.096 142.419,127.594 130.42,144.094 C 118.421,162.093 110.921,186.091 124.42,205.591 C 137.92,223.59 160.419,222.09 178.417,211.59 C 202.417,198.091 221.915,178.592 229.415,153.094"
   style="fill:#dc7303"
   id="path3738" />

			</g>
  <g
     transform="matrix(0.4612467,0,0,0.4612467,192.45352,149.60504)"
     id="g3740">
				<path
   d="M 56.48,64.83 C 47.48,75.83 44.409,80.221 39.426,92.677 C 37.267,98.073 30.495,115.001 38.495,120.001 C 46.495,125.001 55.954,98.627 64.467,85.554 C 70.511,76.271 100.344,28.493 64.035,57.059"
   style="fill:#ffffff"
   id="path3742" />

			</g>
  <g
     transform="matrix(0.4612467,0,0,0.4612467,192.45352,149.60504)"
     id="g3744">
				<circle
   cx="100.15"
   cy="38.117001"
   r="9"
   style="fill:#ffffff"
   id="circle3746" />
 
			</g>
  <circle
     cx="119.5"
     cy="119.5"
     r="112.5"
     transform="matrix(0.4612467,0,0,0.4612467,192.45352,149.60504)"
     style="fill:none;stroke:#000000;stroke-width:14;stroke-opacity:1"
     id="circle3748" />
  <path
     d="M 259.50954,450.75385 L 279.2675,449.55039 L 284.55257,430.4744 L 291.80267,448.89345 L 311.57818,448.02504 L 296.30103,460.6121 L 303.23791,479.15138 L 286.54601,468.51156 L 271.05772,480.83787 L 276.01871,461.67505 L 259.50954,450.75385 z "
     transform="matrix(0.7845831,0,0,0.7845831,23.072381,-152.45031)"
     style="opacity:1;fill:#cb0921;fill-opacity:1;fill-rule:evenodd;stroke:none;stroke-width:2;stroke-linecap:round;stroke-linejoin:miter;stroke-miterlimit:4;stroke-dasharray:none;stroke-dashoffset:0;stroke-opacity:1"
     id="path5047" />
</svg>
